<svg xmlns="http://www.w3.org/2000/svg" version="1.1" xmlns:xlink="http://www.w3.org/1999/xlink" xmlns:svgjs="http://svgjs.dev/svgjs" viewBox="0 0 800 800"><defs><filter id="bbburst-blur-1" x="-100%" y="-100%" width="400%" height="400%"><feGaussianBlur in="SourceGraphic" stdDeviation="1"></feGaussianBlur></filter><filter id="bbburst-blur-2" x="-100%" y="-100%" width="400%" height="400%"><feGaussianBlur in="SourceGraphic" stdDeviation="2"></feGaussianBlur></filter><filter id="bbburst-blur-3" x="-100%" y="-100%" width="400%" height="400%"><feGaussianBlur in="SourceGraphic" stdDeviation="4"></feGaussianBlur></filter><filter id="bbburst-blur-4" x="-100%" y="-100%" width="400%" height="400%"><feGaussianBlur in="SourceGraphic" stdDeviation="12"></feGaussianBlur></filter><symbol id="bbburst-shape-1" viewBox="0 0 194 167"><path d="m97 0 96.129 166.5H.871L97 0Z"></path></symbol><symbol id="bbburst-shape-2" viewBox="0 0 126 115"><path d="m63 0 62.77 43.877-23.976 70.996H24.206L.23 43.877 63 0Z"></path></symbol><symbol id="bbburst-shape-3" viewBox="0 0 131 127"><path d="m66 0 66 63.5L66 127 0 63.5 66 0Z"></path></symbol></defs><use xlink:href="#bbburst-shape-2" width="26.563389231870495" opacity="0.5368232903147965" transform="matrix(0.9997977162021093,0.020112848556244747,-0.020112848556244747,0.9997977162021093,407.0483638319197,207.89448339529014)" fill="#ffbd9b" filter="url(#bbburst-blur-2)"></use><use xlink:href="#bbburst-shape-1" width="38.135976820684675" opacity="0.4567733403404659" transform="matrix(0.999258516345111,-0.03850217541604136,0.03850217541604136,0.999258516345111,183.31613725616137,164.01735004581286)" fill="#ff5c58" filter="url(#bbburst-blur-2)"></use><use xlink:href="#bbburst-shape-2" width="22.463558679965946" opacity="0.5213293774933407" transform="matrix(0.9862204231733658,-0.1654366250736136,0.1654366250736136,0.9862204231733658,496.0108763966809,-120.59803035075964)" fill="#ff5c58" filter="url(#bbburst-blur-2)"></use><use xlink:href="#bbburst-shape-2" width="41.200423788688596" opacity="0.3602050624327805" transform="matrix(0.774937806644745,-0.6320374955907535,0.6320374955907535,0.774937806644745,371.7837941240621,261.25959160165013)" fill="#ff5c58" filter="url(#bbburst-blur-2)"></use><use xlink:href="#bbburst-shape-2" width="19.087186379109188" opacity="0.6573466341301484" transform="matrix(0.8378730077056388,-0.5458652058505896,0.5458652058505896,0.8378730077056388,205.94409730445372,220.84540427019056)" fill="#df711b" filter="url(#bbburst-blur-1)"></use><use xlink:href="#bbburst-shape-1" width="13.864564486370162" opacity="0.8484598190979925" transform="matrix(0.991376544953245,0.13104406173713673,-0.13104406173713673,0.991376544953245,394.93000283931354,-43.143025583985775)" fill="#000000"></use><use xlink:href="#bbburst-shape-3" width="15.87011947505932" opacity="0.8827477452408224" transform="matrix(0.9925282939210573,-0.12201469487793347,0.12201469487793347,0.9925282939210573,365.64362423416753,-43.81523955535545)" fill="#ffbd9b"></use><use xlink:href="#bbburst-shape-2" width="20.963936545285804" opacity="0.7635146908961258" transform="matrix(0.9993541622461565,-0.035934084116376296,0.035934084116376296,0.9993541622461565,375.03058340368716,107.06386767802348)" fill="#ffbd9b" filter="url(#bbburst-blur-1)"></use><use xlink:href="#bbburst-shape-2" width="43.24784756019692" opacity="0.19371392059758485" transform="matrix(1.1193128653551767,0.5564518932040615,-0.5564518932040615,1.1193128653551767,498.8636108626061,289.18522108331643)" fill="#df711b" filter="url(#bbburst-blur-3)"></use><use xlink:href="#bbburst-shape-2" width="18.213989624967468" opacity="0.7516315636724649" transform="matrix(0.8052460047639435,-0.5929408670446886,0.5929408670446886,0.8052460047639435,204.2670062131101,183.87209708172935)" fill="#ffbd9b" filter="url(#bbburst-blur-1)"></use><use xlink:href="#bbburst-shape-1" width="18.878759071904746" opacity="0.8590297244436897" transform="matrix(0.9970309889772495,0.07700134426779635,-0.07700134426779635,0.9970309889772495,480.3753722025792,-22.851953686242325)" fill="#000000"></use><use xlink:href="#bbburst-shape-3" width="26.096265860371958" opacity="0.4851913090895825" transform="matrix(0.9921503869658154,-0.12505042840223637,0.12505042840223637,0.9921503869658154,556.873806071209,77.55223300799747)" fill="#ffbd9b" filter="url(#bbburst-blur-2)"></use><use xlink:href="#bbburst-shape-1" width="31.8255823215349" opacity="0.2672175533515895" transform="matrix(1.226279449160314,-0.24236070755606642,0.24236070755606642,1.226279449160314,40.71864488441523,136.48335575498328)" fill="#df711b" filter="url(#bbburst-blur-3)"></use><use xlink:href="#bbburst-shape-2" width="24.721470013064813" opacity="0.578987534550047" transform="matrix(0.7822694962387651,-0.6229401538304854,0.6229401538304854,0.7822694962387651,-39.228755745928254,152.70277197088114)" fill="#ffbd9b" filter="url(#bbburst-blur-1)"></use><use xlink:href="#bbburst-shape-2" width="30.497840369966312" opacity="0.6010986240161771" transform="matrix(0.9743608550368477,-0.22499094242182996,0.22499094242182996,0.9743608550368477,474.21436914135336,26.267595480167927)" fill="#ffbd9b" filter="url(#bbburst-blur-1)"></use><use xlink:href="#bbburst-shape-3" width="26.516209922899286" opacity="0.7032152231909677" transform="matrix(0.9896116939158535,-0.14376611306213666,0.14376611306213666,0.9896116939158535,377.5751850072321,-118.43648954006443)" fill="#df711b" filter="url(#bbburst-blur-1)"></use><use xlink:href="#bbburst-shape-1" width="44.14725107273604" opacity="0.17168498525976972" transform="matrix(1.0580224106402747,-0.6656489905219881,0.6656489905219881,1.0580224106402747,-239.3645721601052,-137.23610197969634)" fill="#df711b" filter="url(#bbburst-blur-3)"></use><use xlink:href="#bbburst-shape-1" width="30.627786306101015" opacity="0.08164574445322992" transform="matrix(1.748203912681324,-0.07926587970690623,0.07926587970690623,1.748203912681324,145.25090271184484,65.67676740784066)" fill="#df711b" filter="url(#bbburst-blur-4)"></use><use xlink:href="#bbburst-shape-1" width="16.96821010442718" opacity="0.8811910288376966" transform="matrix(0.8307852708893789,0.5565930593110744,-0.5565930593110744,0.8307852708893789,601.0343548489102,11.53355989006792)" fill="#ffbd9b"></use><use xlink:href="#bbburst-shape-3" width="28.93513733110305" opacity="0.658448227182338" transform="matrix(0.768090073290733,-0.6403418144336949,0.6403418144336949,0.768090073290733,239.22865939624216,-8.660215783893989)" fill="#ffbd9b" filter="url(#bbburst-blur-1)"></use><use xlink:href="#bbburst-shape-3" width="36.89978565250334" opacity="0.3870606556874019" transform="matrix(0.9999994960090439,0.0010039828972864821,-0.0010039828972864821,0.9999994960090439,571.9887406792703,-199.7946931165524)" fill="#ffbd9b" filter="url(#bbburst-blur-2)"></use><use xlink:href="#bbburst-shape-1" width="14.305846035167463" opacity="0.8430246757224459" transform="matrix(0.9576376454153875,0.2879759366392831,-0.2879759366392831,0.9576376454153875,540.0662072718884,78.01369083902017)" fill="#df711b"></use><use xlink:href="#bbburst-shape-3" width="31.22669686354989" opacity="0.33279793026777715" transform="matrix(1.1604507177236114,-0.46460104577449557,0.46460104577449557,1.1604507177236114,-96.83367691712205,9.837404098266177)" fill="#df711b" filter="url(#bbburst-blur-3)"></use><use xlink:href="#bbburst-shape-1" width="35.163897949374515" opacity="0.20216822037357463" transform="matrix(1.205368943916175,0.33103732273326053,-0.33103732273326053,1.205368943916175,492.73440468941743,-446.4619813813451)" fill="#df711b" filter="url(#bbburst-blur-3)"></use><use xlink:href="#bbburst-shape-2" width="16.240386360772852" opacity="0.724750052087636" transform="matrix(0.7419124503905848,-0.6704967680425,0.6704967680425,0.7419124503905848,243.30860397975357,147.79424203621892)" fill="#df711b" filter="url(#bbburst-blur-1)"></use><use xlink:href="#bbburst-shape-3" width="35.92398739456588" opacity="0.37299562234066574" transform="matrix(0.8839101418457775,0.467656777072863,-0.467656777072863,0.8839101418457775,649.2414411279132,309.07716676315425)" fill="#ffbd9b" filter="url(#bbburst-blur-2)"></use><use xlink:href="#bbburst-shape-1" width="36.3514786391705" opacity="-0.08200653858627605" transform="matrix(1.29866682898004,-1.173015118106722,1.173015118106722,1.29866682898004,252.79893604443112,244.940359749217)" fill="#ffbd9b" filter="url(#bbburst-blur-4)"></use><use xlink:href="#bbburst-shape-1" width="16.049136470997723" opacity="0.934952048254613" transform="matrix(0.8341243896847432,-0.5515763796003729,0.5515763796003729,0.8341243896847432,146.1456962775437,58.45002358034009)" fill="#df711b"></use><use xlink:href="#bbburst-shape-2" width="27.146008232776147" opacity="0.649902714758435" transform="matrix(0.7767460450122032,0.6298139261384272,-0.6298139261384272,0.7767460450122032,735.3428675424,207.21502769588392)" fill="#ff5c58" filter="url(#bbburst-blur-1)"></use><use xlink:href="#bbburst-shape-2" width="48.12315512662339" opacity="0.20692883871366596" transform="matrix(1.2244639737029708,-0.25137218840502357,0.25137218840502357,1.2244639737029708,621.202913756946,-147.09171194540596)" fill="#ffbd9b" filter="url(#bbburst-blur-3)"></use><use xlink:href="#bbburst-shape-3" width="29.325347784684645" opacity="0.5884162378040114" transform="matrix(0.8463576051598621,0.5326150619237714,-0.5326150619237714,0.8463576051598621,478.43615489394324,-85.67471760118855)" fill="#df711b" filter="url(#bbburst-blur-1)"></use><use xlink:href="#bbburst-shape-1" width="36.786269038087895" opacity="0.44227145190991013" transform="matrix(0.9999979529761552,-0.0020233742855262976,0.0020233742855262976,0.9999979529761552,195.17945520880866,-168.83989690276928)" fill="#ffbd9b" filter="url(#bbburst-blur-2)"></use><use xlink:href="#bbburst-shape-2" width="29.521724841862383" opacity="0.17887818760848673" transform="matrix(1.124047690564853,-0.546824276468977,0.546824276468977,1.124047690564853,312.31219843196214,297.2028852804194)" fill="#ff5c58" filter="url(#bbburst-blur-3)"></use><use xlink:href="#bbburst-shape-2" width="26.12276107826428" opacity="0.18423282511325134" transform="matrix(1.2495376508855935,0.03399498520830105,-0.03399498520830105,1.2495376508855935,464.6646648370038,260.61439484012055)" fill="#df711b" filter="url(#bbburst-blur-3)"></use><use xlink:href="#bbburst-shape-3" width="18.51695589898465" opacity="0.7618930010052654" transform="matrix(0.8331598426548443,0.5530322563715023,-0.5530322563715023,0.8331598426548443,577.1995454076023,-39.25648312184501)" fill="#000000" filter="url(#bbburst-blur-1)"></use><use xlink:href="#bbburst-shape-2" width="32.811779139241935" opacity="0.22232793374872317" transform="matrix(1.2173060694895081,-0.28401748746160765,0.28401748746160765,1.2173060694895081,466.5290767336885,-369.3415797235846)" fill="#000000" filter="url(#bbburst-blur-3)"></use><use xlink:href="#bbburst-shape-1" width="22.328369889236317" opacity="0.7277716651548254" transform="matrix(0.8628972852240339,-0.5053793378769974,0.5053793378769974,0.8628972852240339,310.2085194986919,49.195004392122996)" fill="#ffbd9b" filter="url(#bbburst-blur-1)"></use><use xlink:href="#bbburst-shape-1" width="31.874237373697" opacity="0.5537456328902097" transform="matrix(0.9995589245437138,0.029697750167553213,-0.029697750167553213,0.9995589245437138,484.44287687391943,-180.51971109797486)" fill="#df711b" filter="url(#bbburst-blur-2)"></use><use xlink:href="#bbburst-shape-1" width="35.054366280974584" opacity="0.3236213664431742" transform="matrix(0.9483215402974127,0.8143624845288139,-0.8143624845288139,0.9483215402974127,553.8756171109774,268.2628463067499)" fill="#df711b" filter="url(#bbburst-blur-3)"></use><use xlink:href="#bbburst-shape-1" width="16.11981539155414" opacity="0.7457091681910035" transform="matrix(0.7542584966299312,-0.6565775812968,0.6565775812968,0.7542584966299312,23.812383516078683,142.84853112613723)" fill="#ffbd9b" filter="url(#bbburst-blur-1)"></use><use xlink:href="#bbburst-shape-3" width="18.82550166930165" opacity="0.6692514042917241" transform="matrix(0.9947872215297802,0.10197246628899424,-0.10197246628899424,0.9947872215297802,299.5588464204484,-68.03766062877594)" fill="#ffbd9b" filter="url(#bbburst-blur-1)"></use><use xlink:href="#bbburst-shape-3" width="33.12525948908177" opacity="0.17638177974561386" transform="matrix(1.0611911412637087,-0.6605856202669169,0.6605856202669169,1.0611911412637087,-250.53333164104822,-52.279317247624874)" fill="#ffbd9b" filter="url(#bbburst-blur-3)"></use><use xlink:href="#bbburst-shape-2" width="24.653545911005054" opacity="0.6208893959451589" transform="matrix(0.7872512099375916,0.6166324127483068,-0.6166324127483068,0.7872512099375916,598.9159376403147,243.81628903779898)" fill="#df711b" filter="url(#bbburst-blur-1)"></use><use xlink:href="#bbburst-shape-3" width="36.60469677900797" opacity="0.054803728301752064" transform="matrix(1.7049233990718857,-0.39463426523449197,0.39463426523449197,1.7049233990718857,-146.86284790772294,-505.0361113843312)" fill="#ffbd9b" filter="url(#bbburst-blur-4)"></use><use xlink:href="#bbburst-shape-1" width="16.339411935605643" opacity="0.7957998239590989" transform="matrix(0.8542495497514049,0.5198631615622731,-0.5198631615622731,0.8542495497514049,657.0177785953317,-18.73549069059993)" fill="#000000"></use><use xlink:href="#bbburst-shape-1" width="19.39054669887123" opacity="0.641216603386362" transform="matrix(0.9914858845807878,-0.13021421073390052,0.13021421073390052,0.9914858845807878,244.49811181256212,136.09765563998923)" fill="#ff5c58" filter="url(#bbburst-blur-1)"></use><use xlink:href="#bbburst-shape-1" width="43.48677724244169" opacity="-0.09040259341777168" transform="matrix(1.5051740631367014,-0.8927211432807858,0.8927211432807858,1.5051740631367014,-337.82408197302203,-528.4409106759405)" fill="#000000" filter="url(#bbburst-blur-4)"></use><use xlink:href="#bbburst-shape-2" width="19.169821827335813" opacity="0.8374403075029551" transform="matrix(0.7368939655617817,0.6760083457462872,-0.6760083457462872,0.7368939655617817,590.2226128497944,101.2107827915276)" fill="#ffbd9b"></use><use xlink:href="#bbburst-shape-1" width="45.033409572568004" opacity="-0.06559477738925179" transform="matrix(1.7490863675812311,-0.056540947476092784,0.056540947476092784,1.7490863675812311,677.150267962487,-637.2532535436596)" fill="#df711b" filter="url(#bbburst-blur-4)"></use><use xlink:href="#bbburst-shape-2" width="15.530231144836016" opacity="0.8255502068894791" transform="matrix(0.9236804617344904,0.3831636786152345,-0.3831636786152345,0.9236804617344904,623.5101955025818,40.54967731721365)" fill="#000000"></use><use xlink:href="#bbburst-shape-2" width="14.12307012160153" opacity="0.9555856341880865" transform="matrix(0.8691671231476468,0.4945184648112176,-0.4945184648112176,0.8691671231476468,607.5430244787033,36.70702004402017)" fill="#ffbd9b"></use><use xlink:href="#bbburst-shape-2" width="30.895576972768552" opacity="0.6345248261387764" transform="matrix(0.8190242543821801,0.5737588959952726,-0.5737588959952726,0.8190242543821801,623.2583768732202,-100.79888440061072)" fill="#000000" filter="url(#bbburst-blur-1)"></use><use xlink:href="#bbburst-shape-3" width="32.7893085566886" opacity="0.21319087323219954" transform="matrix(1.1629246767395078,0.4583734244372278,-0.4583734244372278,1.1629246767395078,549.600437098459,281.0233993242204)" fill="#ff5c58" filter="url(#bbburst-blur-3)"></use><use xlink:href="#bbburst-shape-3" width="37.200788985841385" opacity="0.09484852683091594" transform="matrix(1.6933160504566258,-0.4417926586827514,0.4417926586827514,1.6933160504566258,552.1753865139672,-458.39939969593655)" fill="#ffbd9b" filter="url(#bbburst-blur-4)"></use><use xlink:href="#bbburst-shape-1" width="29.601248753809735" opacity="0.12130352511942721" transform="matrix(1.2453968903544275,-0.1071754892478799,0.1071754892478799,1.2453968903544275,-21.216983928859563,67.21457971905869)" fill="#000000" filter="url(#bbburst-blur-3)"></use><use xlink:href="#bbburst-shape-2" width="30.334962376582197" opacity="0.5428281999526983" transform="matrix(0.9885121900603111,0.1511411595236965,-0.1511411595236965,0.9885121900603111,260.2568366419962,-87.2543886291707)" fill="#ff5c58" filter="url(#bbburst-blur-2)"></use><use xlink:href="#bbburst-shape-2" width="40.012842811105294" opacity="0.05508836523530303" transform="matrix(1.2864223338112002,1.1864306044062356,-1.1864306044062356,1.2864223338112002,1084.5466291224175,215.60316168261215)" fill="#df711b" filter="url(#bbburst-blur-4)"></use><use xlink:href="#bbburst-shape-2" width="30.301009926923903" opacity="0.07410160124006171" transform="matrix(1.4264105373773563,1.0138308433160046,-1.0138308433160046,1.4264105373773563,987.4493152615287,-549.4556539063233)" fill="#ffbd9b" filter="url(#bbburst-blur-4)"></use><use xlink:href="#bbburst-shape-2" width="24.40988007797525" opacity="0.4671335202517678" transform="matrix(0.859118632904196,0.5117764889058751,-0.5117764889058751,0.859118632904196,354.4962434428872,55.80013996820577)" fill="#000000" filter="url(#bbburst-blur-2)"></use><use xlink:href="#bbburst-shape-2" width="19.958909820846962" opacity="0.6203399327212636" transform="matrix(0.874217215019034,0.4855350254763955,-0.4855350254763955,0.874217215019034,531.5006018269489,-116.61726455699858)" fill="#000000" filter="url(#bbburst-blur-1)"></use><use xlink:href="#bbburst-shape-3" width="23.547808680258864" opacity="0.5809503079699422" transform="matrix(0.7398495037988108,-0.6727724070803242,0.6727724070803242,0.7398495037988108,-65.14211281241043,89.7971720696533)" fill="#000000" filter="url(#bbburst-blur-1)"></use><use xlink:href="#bbburst-shape-2" width="31.556938173343514" opacity="0.4585505689342526" transform="matrix(0.982259109550406,0.18752877567254458,-0.18752877567254458,0.982259109550406,234.7642292226783,98.25809485780184)" fill="#ffbd9b" filter="url(#bbburst-blur-2)"></use><use xlink:href="#bbburst-shape-3" width="19.82750013235887" opacity="0.664843708744414" transform="matrix(0.9327064694616586,-0.36063643995631955,0.36063643995631955,0.9327064694616586,97.43540117330406,53.927459545192335)" fill="#ff5c58" filter="url(#bbburst-blur-1)"></use><use xlink:href="#bbburst-shape-2" width="14.418240830422663" opacity="0.7748842716014648" transform="matrix(0.9871473363816695,0.1598128163651934,-0.1598128163651934,0.9871473363816695,534.6466261226684,68.82807457690092)" fill="#df711b" filter="url(#bbburst-blur-1)"></use><use xlink:href="#bbburst-shape-2" width="40.85963431405956" opacity="0.16485541538707515" transform="matrix(1.0095316643059475,0.7371199486946909,-0.7371199486946909,1.0095316643059475,961.0616442760229,-261.65161103373714)" fill="#000000" filter="url(#bbburst-blur-3)"></use><use xlink:href="#bbburst-shape-2" width="27.999552519783215" opacity="0.5212061005535927" transform="matrix(0.9338016824868417,0.3577910252993271,-0.3577910252993271,0.9338016824868417,623.5159267124881,215.60660526846436)" fill="#000000" filter="url(#bbburst-blur-2)"></use><use xlink:href="#bbburst-shape-2" width="30.738281831891168" opacity="-0.09237790620978248" transform="matrix(1.7365952711247954,0.2161871048582643,-0.2161871048582643,1.7365952711247954,120.98248994040247,58.23518552204939)" fill="#ffbd9b" filter="url(#bbburst-blur-4)"></use><use xlink:href="#bbburst-shape-1" width="26.221643710873817" opacity="0.1791869681889654" transform="matrix(1.061414501185677,0.66022667067664,-0.66022667067664,1.061414501185677,286.19308434632586,29.78064594867226)" fill="#df711b" filter="url(#bbburst-blur-3)"></use><use xlink:href="#bbburst-shape-3" width="35.997134705113815" opacity="0.12297996244843035" transform="matrix(1.1919824102182832,-0.3764012934757428,0.3764012934757428,1.1919824102182832,-20.531873405853133,236.75192399458246)" fill="#ffbd9b" filter="url(#bbburst-blur-3)"></use><use xlink:href="#bbburst-shape-2" width="28.15835095356492" opacity="0.39509852173845017" transform="matrix(0.9935575557096467,0.1133286525653261,-0.1133286525653261,0.9935575557096467,174.56372513012127,-89.3436360516771)" fill="#df711b" filter="url(#bbburst-blur-2)"></use><use xlink:href="#bbburst-shape-2" width="24.149301202918803" opacity="0.518073682796435" transform="matrix(0.9940127585944077,-0.10926406431913366,0.10926406431913366,0.9940127585944077,235.08949621765598,191.09158599626284)" fill="#df711b" filter="url(#bbburst-blur-2)"></use><use xlink:href="#bbburst-shape-2" width="45.219625056797945" opacity="0.33504245994801585" transform="matrix(0.9446398571311985,0.32810903724089807,-0.32810903724089807,0.9446398571311985,779.2221859663246,-115.60952671987297)" fill="#000000" filter="url(#bbburst-blur-2)"></use><use xlink:href="#bbburst-shape-1" width="39.27516815600422" opacity="0.183098445364828" transform="matrix(0.8991990376429906,0.8682978122176283,-0.8682978122176283,0.8991990376429906,992.5551221381029,280.21448314070904)" fill="#ffbd9b" filter="url(#bbburst-blur-3)"></use><use xlink:href="#bbburst-shape-2" width="36.14351039251017" opacity="0.3846086570084204" transform="matrix(0.9569286311565688,0.2903232592694141,-0.2903232592694141,0.9569286311565688,602.936776646703,-244.6131917505254)" fill="#df711b" filter="url(#bbburst-blur-2)"></use><use xlink:href="#bbburst-shape-1" width="19.029085189718025" opacity="0.7204354143807353" transform="matrix(0.9274819607201421,0.3738679078748547,-0.3738679078748547,0.9274819607201421,415.98663865554573,9.044406935935513)" fill="#ff5c58" filter="url(#bbburst-blur-1)"></use><use xlink:href="#bbburst-shape-2" width="33.64071208631548" opacity="0.3490441230454513" transform="matrix(0.980036685502465,0.19881673739738948,-0.19881673739738948,0.980036685502465,633.7359345152527,242.7135411847235)" fill="#ff5c58" filter="url(#bbburst-blur-2)"></use><use xlink:href="#bbburst-shape-2" width="43.127714379144265" opacity="0.06077849976831817" transform="matrix(1.289421636062387,-1.1831702516773304,1.1831702516773304,1.289421636062387,255.48813031278485,136.74280755614706)" fill="#df711b" filter="url(#bbburst-blur-4)"></use><use xlink:href="#bbburst-shape-1" width="39.02723525508194" opacity="0.20885504786815756" transform="matrix(1.1820294072496624,0.4065789965025389,-0.4065789965025389,1.1820294072496624,621.0469818129292,-427.24690421978823)" fill="#ff5c58" filter="url(#bbburst-blur-3)"></use><use xlink:href="#bbburst-shape-1" width="15.868041383986418" opacity="0.8990500634064816" transform="matrix(0.8108740174174137,-0.5852207514069745,0.5852207514069745,0.8108740174174137,198.81195435514863,103.05771466838337)" fill="#df711b"></use><use xlink:href="#bbburst-shape-1" width="12.698380695231872" opacity="0.8872496385980804" transform="matrix(0.8701895882092885,-0.49271703905197844,0.49271703905197844,0.8701895882092885,199.2916307225758,105.76901433082696)" fill="#df711b"></use><use xlink:href="#bbburst-shape-1" width="11.264585318183933" opacity="0.9618481522387843" transform="matrix(0.9946205897791787,0.10358514559201433,-0.10358514559201433,0.9946205897791787,435.9406754026103,18.750753610172183)" fill="#ffbd9b"></use><use xlink:href="#bbburst-shape-1" width="24.211665107816692" opacity="0.38830191081401244" transform="matrix(0.7532636199941102,-0.6577187231585921,0.6577187231585921,0.7532636199941102,122.72602987054921,381.89738869234475)" fill="#000000" filter="url(#bbburst-blur-2)"></use><use xlink:href="#bbburst-shape-2" width="37.16243850687569" opacity="0.4743611317797872" transform="matrix(0.9236196578301707,0.38331022380009433,-0.38331022380009433,0.9236196578301707,438.76710614907927,-192.11173946245097)" fill="#df711b" filter="url(#bbburst-blur-2)"></use><use xlink:href="#bbburst-shape-2" width="40.73472337253011" opacity="0.4589896079967529" transform="matrix(0.996902430488702,0.07864823002279728,-0.07864823002279728,0.996902430488702,422.4637434211392,-243.53416288047632)" fill="#000000" filter="url(#bbburst-blur-2)"></use><use xlink:href="#bbburst-shape-2" width="22.422707388383273" opacity="0.6135841429772604" transform="matrix(0.9937033811054622,-0.11204280601436471,0.11204280601436471,0.9937033811054622,203.070286845482,105.58642348006208)" fill="#000000" filter="url(#bbburst-blur-1)"></use><use xlink:href="#bbburst-shape-3" width="27.154181001456625" opacity="0.35799054532584196" transform="matrix(0.8074540185167839,-0.5899305111460987,0.5899305111460987,0.8074540185167839,440.3446444055995,114.88746308998503)" fill="#ffbd9b" filter="url(#bbburst-blur-2)"></use><use xlink:href="#bbburst-shape-3" width="29.223377606042938" opacity="0.4530690299036656" transform="matrix(0.7254685404078168,0.6882553282601972,-0.6882553282601972,0.7254685404078168,906.9786126495071,56.81589908085971)" fill="#df711b" filter="url(#bbburst-blur-2)"></use><use xlink:href="#bbburst-shape-2" width="31.48684543956653" opacity="0.2863258969005129" transform="matrix(1.1563984354494659,-0.4745973646050169,0.4745973646050169,1.1563984354494659,-74.37556949831074,-234.5219971914603)" fill="#ff5c58" filter="url(#bbburst-blur-3)"></use><use xlink:href="#bbburst-shape-3" width="26.204087224912307" opacity="0.1810729219105287" transform="matrix(1.1586056936128704,0.4691831696979758,-0.4691831696979758,1.1586056936128704,937.2266547335487,-17.772617502630283)" fill="#df711b" filter="url(#bbburst-blur-3)"></use><use xlink:href="#bbburst-shape-3" width="28.37874366388146" opacity="0.3210719230543855" transform="matrix(1.2481627155738153,0.06774832434384913,-0.06774832434384913,1.2481627155738153,104.66308683583347,-124.01842796373523)" fill="#000000" filter="url(#bbburst-blur-3)"></use><use xlink:href="#bbburst-shape-3" width="29.996534781886794" opacity="0.20638294530645462" transform="matrix(1.1850207345159325,0.39777614152600954,-0.39777614152600954,1.1850207345159325,871.4005328603885,56.02723435374526)" fill="#ff5c58" filter="url(#bbburst-blur-3)"></use><use xlink:href="#bbburst-shape-1" width="20.05688460001475" opacity="0.7891235083924851" transform="matrix(0.7106463723084201,0.703549382435151,-0.703549382435151,0.7106463723084201,681.1221168244393,14.057240651390487)" fill="#000000"></use><use xlink:href="#bbburst-shape-2" width="14.620375962329502" opacity="0.9083784107792645" transform="matrix(0.9426650461412082,-0.33374033436729494,0.33374033436729494,0.9426650461412082,224.97315196899362,47.737137711788364)" fill="#df711b"></use><use xlink:href="#bbburst-shape-2" width="17.06900036357077" opacity="0.8286153897816234" transform="matrix(0.9865401719252561,-0.1635190789409177,0.1635190789409177,0.9865401719252561,264.19704363420107,52.687943832253836)" fill="#df711b"></use><use xlink:href="#bbburst-shape-2" width="25.32227463735308" opacity="0.6069857214369938" transform="matrix(0.9606927870594552,-0.2776137044382649,0.2776137044382649,0.9606927870594552,443.2109030285319,-40.61487011630902)" fill="#000000" filter="url(#bbburst-blur-1)"></use><use xlink:href="#bbburst-shape-1" width="29.97153282198547" opacity="0.5121782369327065" transform="matrix(0.9483654098878489,0.3171798375184847,-0.3171798375184847,0.9483654098878489,674.5558531046661,164.17590697529175)" fill="#df711b" filter="url(#bbburst-blur-2)"></use><use xlink:href="#bbburst-shape-2" width="34.23517653954822" opacity="0.34954589812927217" transform="matrix(0.9353379531852286,0.3537554428291769,-0.3537554428291769,0.9353379531852286,464.7492208124977,-266.50812703089383)" fill="#df711b" filter="url(#bbburst-blur-2)"></use><use xlink:href="#bbburst-shape-2" width="43.30120772279362" opacity="0.16510844743648556" transform="matrix(0.9011627471409174,-0.8662596049484445,0.8662596049484445,0.9011627471409174,-95.35240575068377,-294.42006423820317)" fill="#000000" filter="url(#bbburst-blur-3)"></use><use xlink:href="#bbburst-shape-1" width="17.32674069622676" opacity="0.786571526084296" transform="matrix(0.9514437370877532,0.3078227008465918,-0.3078227008465918,0.9514437370877532,427.69385717096463,-23.508094788528865)" fill="#df711b"></use><use xlink:href="#bbburst-shape-2" width="23.53958628364528" opacity="0.7451100967519014" transform="matrix(0.7502997954728515,-0.6610977362791353,0.6610977362791353,0.7502997954728515,227.9313260872155,53.669221858591754)" fill="#ffbd9b" filter="url(#bbburst-blur-1)"></use><use xlink:href="#bbburst-shape-2" width="22.025991260571395" opacity="0.7220763367860339" transform="matrix(0.773187829532854,0.6341770890392322,-0.6341770890392322,0.773187829532854,562.5278141726214,-10.140083190316034)" fill="#ffbd9b" filter="url(#bbburst-blur-1)"></use><use xlink:href="#bbburst-shape-3" width="34.881158077033064" opacity="0.053315071237458045" transform="matrix(1.5054327908388432,-0.892284770836739,0.892284770836739,1.5054327908388432,-217.74435425815474,-542.2333030791548)" fill="#df711b" filter="url(#bbburst-blur-4)"></use><use xlink:href="#bbburst-shape-2" width="18.9106455939287" opacity="0.7382194002320148" transform="matrix(0.9035840566504995,-0.4284108455291801,0.4284108455291801,0.9035840566504995,133.21441403496445,122.17898738229923)" fill="#ff5c58" filter="url(#bbburst-blur-1)"></use><use xlink:href="#bbburst-shape-3" width="20.816598355985693" opacity="0.742371647664469" transform="matrix(0.9999927380842244,0.0038110075853662185,-0.0038110075853662185,0.9999927380842244,345.4094468482213,106.53946177870199)" fill="#ff5c58" filter="url(#bbburst-blur-1)"></use><use xlink:href="#bbburst-shape-3" width="45.36496385691849" opacity="0.14936892370128185" transform="matrix(1.0042268257876574,-0.7443308957503013,0.7443308957503013,1.0042268257876574,-191.64490266083178,-255.05623326649913)" fill="#df711b" filter="url(#bbburst-blur-3)"></use><use xlink:href="#bbburst-shape-2" width="34.523669148609905" opacity="0.2908951115370064" transform="matrix(1.1815273621810947,0.40803565091470156,-0.40803565091470156,1.1815273621810947,262.8112489103396,73.4109208569239)" fill="#ffbd9b" filter="url(#bbburst-blur-3)"></use><use xlink:href="#bbburst-shape-1" width="14.737257615784435" opacity="0.8412535602072766" transform="matrix(0.8217613358393018,0.5698318233651103,-0.5698318233651103,0.8217613358393018,593.8688558780193,132.8329024447503)" fill="#df711b"></use><use xlink:href="#bbburst-shape-2" width="31.163454230377695" opacity="0.4180967888403475" transform="matrix(0.9538818100332301,0.30018243201048367,-0.30018243201048367,0.9538818100332301,432.5187256727685,265.350939258381)" fill="#ff5c58" filter="url(#bbburst-blur-2)"></use><use xlink:href="#bbburst-shape-1" width="44.449721399191944" opacity="0.03910127588672796" transform="matrix(1.2535482707433083,-1.221112907521848,1.221112907521848,1.2535482707433083,-462.56029462778065,184.69788168340904)" fill="#df711b" filter="url(#bbburst-blur-4)"></use><use xlink:href="#bbburst-shape-2" width="26.72609376008472" opacity="0.6309050988956831" transform="matrix(0.9621770895651923,0.27242475716398445,-0.27242475716398445,0.9621770895651923,639.8657902723902,94.6922167634931)" fill="#ff5c58" filter="url(#bbburst-blur-1)"></use><use xlink:href="#bbburst-shape-2" width="35.804159384347486" opacity="0.30437856218442194" transform="matrix(1.1103752536874825,0.5740790851428563,-0.5740790851428563,1.1103752536874825,435.9776235820875,-314.7782918388334)" fill="#df711b" filter="url(#bbburst-blur-3)"></use></svg>