<svg xmlns="http://www.w3.org/2000/svg" version="1.1" xmlns:xlink="http://www.w3.org/1999/xlink" xmlns:svgjs="http://svgjs.dev/svgjs" viewBox="0 0 800 800"><defs><filter id="bbburst-blur-1" x="-100%" y="-100%" width="400%" height="400%"><feGaussianBlur in="SourceGraphic" stdDeviation="1"></feGaussianBlur></filter><filter id="bbburst-blur-2" x="-100%" y="-100%" width="400%" height="400%"><feGaussianBlur in="SourceGraphic" stdDeviation="2"></feGaussianBlur></filter><filter id="bbburst-blur-3" x="-100%" y="-100%" width="400%" height="400%"><feGaussianBlur in="SourceGraphic" stdDeviation="4"></feGaussianBlur></filter><filter id="bbburst-blur-4" x="-100%" y="-100%" width="400%" height="400%"><feGaussianBlur in="SourceGraphic" stdDeviation="12"></feGaussianBlur></filter><symbol id="bbburst-shape-2" viewBox="0 0 126 115"><path d="m63 0 62.77 43.877-23.976 70.996H24.206L.23 43.877 63 0Z"></path></symbol><symbol id="bbburst-shape-5" viewBox="0 0 145 145"><circle cx="72.5" cy="72.5" r="72.5"></circle></symbol><symbol id="bbburst-shape-6" viewBox="0 0 133 116"><path d="M59.7487 10.2513c-13.6683-13.66839-35.8291-13.66839-49.4974 0-13.66839 13.6683-13.66839 35.8291 0 49.4974l49.4974-49.4974ZM66.5 66.5 41.7513 91.2487 66.5 115.997l24.7487-24.7483L66.5 66.5Zm56.249-6.7513c13.668-13.6683 13.668-35.8291 0-49.4974-13.669-13.66839-35.8294-13.66839-49.4977 0l49.4977 49.4974Zm-112.4977 0 31.5 31.5 49.4974-49.4974-31.5-31.5-49.4974 49.4974Zm80.9974 31.5 31.5003-31.5-49.4977-49.4974-31.5 31.5 49.4974 49.4974Z"></path></symbol></defs><use xlink:href="#bbburst-shape-5" width="28.59121930523385" opacity="0.6464700087312181" transform="matrix(0.9890919984702307,-0.14729907861953911,0.14729907861953911,0.9890919984702307,-15.13409812002189,-44.778813388710944)" fill="#ffc069" filter="url(#bbburst-blur-1)"></use><use xlink:href="#bbburst-shape-5" width="31.261273594516283" opacity="0.6703964830542122" transform="matrix(0.7758096545263844,0.6309670196956827,-0.6309670196956827,0.7758096545263844,519.0895409749922,-144.4228232693425)" fill="#ffc069"></use><use xlink:href="#bbburst-shape-5" width="48.483986757813845" opacity="0.21731498395962867" transform="matrix(0.9666825013448149,0.2559784006390614,-0.2559784006390614,0.9666825013448149,669.155410038845,121.18551884816247)" fill="#ffc069" filter="url(#bbburst-blur-3)"></use><use xlink:href="#bbburst-shape-5" width="28.446186081848854" opacity="0.5999887242426987" transform="matrix(0.9967592571748308,0.08044242186980385,-0.08044242186980385,0.9967592571748308,400.9580554544723,-284.29645930525527)" fill="#ffc069" filter="url(#bbburst-blur-1)"></use><use xlink:href="#bbburst-shape-6" width="28.451319458063253" opacity="0.5796392324221648" transform="matrix(0.9564187650881256,-0.29199853730336517,0.29199853730336517,0.9564187650881256,-72.06333430925524,37.879161509423284)" fill="#3db2ff" filter="url(#bbburst-blur-1)"></use><use xlink:href="#bbburst-shape-6" width="53.598963258155194" opacity="0.4728607518675325" transform="matrix(0.9982902752782572,0.05845105888571653,-0.05845105888571653,0.9982902752782572,421.3316850984807,-88.62968740784271)" fill="#ff5c58" filter="url(#bbburst-blur-1)"></use><use xlink:href="#bbburst-shape-6" width="72.45529388472752" opacity="0.3682242128655936" transform="matrix(0.9930022365217988,-0.11809554717560498,0.11809554717560498,0.9930022365217988,328.71007959363544,86.0987424917966)" fill="#3db2ff" filter="url(#bbburst-blur-2)"></use><use xlink:href="#bbburst-shape-6" width="13.933497509688141" opacity="0.868357455953457" transform="matrix(0.9999617379611655,-0.008747720485093896,0.008747720485093896,0.9999617379611655,8.030819228670032,-269.58694682536577)" fill="#3db2ff"></use><use xlink:href="#bbburst-shape-5" width="43.428846149773676" opacity="0.3589341304058743" transform="matrix(0.8222810440791679,-0.5690816150149938,0.5690816150149938,0.8222810440791679,389.7940203837707,-230.63542594325054)" fill="#ffc069" filter="url(#bbburst-blur-2)"></use><use xlink:href="#bbburst-shape-2" width="42.22820037624047" opacity="0.5024894608171059" transform="matrix(0.7482491045690359,0.6634178754839486,-0.6634178754839486,0.7482491045690359,715.7943282066901,-139.69081874093442)" fill="#ffc069" filter="url(#bbburst-blur-1)"></use><use xlink:href="#bbburst-shape-6" width="53.700205675185586" opacity="0.2701586430688112" transform="matrix(0.7377810971113482,-0.6750400378830691,0.6750400378830691,0.7377810971113482,-223.38090877137859,449.82344602252095)" fill="#ff5c58" filter="url(#bbburst-blur-2)"></use><use xlink:href="#bbburst-shape-6" width="30.8665171987202" opacity="0.6226344181394137" transform="matrix(0.805182005553126,-0.59302777163759,0.59302777163759,0.805182005553126,-31.327802685397046,-5.112310506756501)" fill="#ffc069" filter="url(#bbburst-blur-1)"></use><use xlink:href="#bbburst-shape-2" width="32.5023466299299" opacity="0.725707775670782" transform="matrix(0.8717515002902286,-0.4899482847625202,0.4899482847625202,0.8717515002902286,-59.03686916394676,-111.80358856903652)" fill="#ffc069"></use><use xlink:href="#bbburst-shape-6" width="21.325931239989437" opacity="0.6931891934830012" transform="matrix(0.9521404967400225,-0.3056607179008501,0.3056607179008501,0.9521404967400225,171.70309798901602,-337.05141408976465)" fill="#ffc069"></use><use xlink:href="#bbburst-shape-2" width="32.63418879429655" opacity="0.6688110824107192" transform="matrix(0.994024196622753,0.10915995844855626,-0.10915995844855626,0.994024196622753,158.1738519265632,-95.07952885009581)" fill="#ff5c58"></use><use xlink:href="#bbburst-shape-6" width="18.313432239527568" opacity="0.8927834923989074" transform="matrix(0.9755827178743445,-0.21963233046367997,0.21963233046367997,0.9755827178743445,-8.449477326483986,-327.45967217460696)" fill="#3db2ff"></use><use xlink:href="#bbburst-shape-5" width="23.632943733815026" opacity="0.7276264386330619" transform="matrix(0.8329831930378342,0.5532982921684236,-0.5532982921684236,0.8329831930378342,294.22065493534956,-80.230358702464)" fill="#ff5c58"></use><use xlink:href="#bbburst-shape-6" width="18.51286516692398" opacity="0.761702142126236" transform="matrix(0.9970068197615657,0.0773136556432884,-0.0773136556432884,0.9970068197615657,196.1269560003144,-237.16066603459723)" fill="#ffc069"></use><use xlink:href="#bbburst-shape-2" width="14.466251133798526" opacity="0.8984394109694603" transform="matrix(0.9998609803198857,-0.016673932762163876,0.016673932762163876,0.9998609803198857,11.135292451467661,-301.39035167568363)" fill="#ffc069"></use><use xlink:href="#bbburst-shape-6" width="11.764619663878221" opacity="0.9282413519317021" transform="matrix(0.8275646366231606,-0.5613704411623185,0.5613704411623185,0.8275646366231606,-214.6096923570987,-257.50911381552663)" fill="#ffc069"></use><use xlink:href="#bbburst-shape-5" width="24.70168015890308" opacity="0.6889058819981879" transform="matrix(0.9812487282939958,-0.19274577355007302,0.19274577355007302,0.9812487282939958,131.08960421012145,-170.47307254435995)" fill="#3db2ff"></use><use xlink:href="#bbburst-shape-6" width="53.77876636124884" opacity="0.3871782589345223" transform="matrix(0.9909458869019657,-0.13426186812374014,0.13426186812374014,0.9909458869019657,13.585720199989751,212.81190715758703)" fill="#ffc069" filter="url(#bbburst-blur-2)"></use><use xlink:href="#bbburst-shape-6" width="60.11957875562475" opacity="0.4541164220260422" transform="matrix(0.7981797183570931,0.6024194030767863,-0.6024194030767863,0.7981797183570931,490.20315592916427,135.20320220905631)" fill="#ff5c58" filter="url(#bbburst-blur-1)"></use><use xlink:href="#bbburst-shape-6" width="37.6660767455095" opacity="0.46324426873265434" transform="matrix(0.7096219794403192,-0.7045826043092486,0.7045826043092486,0.7096219794403192,238.09827243492236,-209.72855815298135)" fill="#ffc069" filter="url(#bbburst-blur-1)"></use><use xlink:href="#bbburst-shape-6" width="15.90210562492799" opacity="0.817395896767773" transform="matrix(0.7601528635999537,0.6497442758199492,-0.6497442758199492,0.7601528635999537,329.756174853123,-143.14569022848713)" fill="#ffc069"></use><use xlink:href="#bbburst-shape-2" width="35.450658635459114" opacity="0.5183613536609329" transform="matrix(0.8620016614279973,0.5069054504494623,-0.5069054504494623,0.8620016614279973,499.69083385318345,12.967107057476085)" fill="#ffc069" filter="url(#bbburst-blur-1)"></use><use xlink:href="#bbburst-shape-6" width="16.80939718448865" opacity="0.7989661280987264" transform="matrix(0.9873507120775776,-0.15855147857998794,0.15855147857998794,0.9873507120775776,51.72015177627148,-234.93362808975928)" fill="#ffc069"></use><use xlink:href="#bbburst-shape-2" width="12.323015553686004" opacity="0.8327646570860124" transform="matrix(0.9102684379126811,0.41401856352101823,-0.41401856352101823,0.9102684379126811,185.87930388729424,-201.43246486936098)" fill="#ff5c58"></use><use xlink:href="#bbburst-shape-6" width="31.50901652226872" opacity="0.5705090641118853" transform="matrix(0.9958757907445331,-0.09072711507014224,0.09072711507014224,0.9958757907445331,323.2909826857209,-188.0333181297101)" fill="#ffc069" filter="url(#bbburst-blur-1)"></use><use xlink:href="#bbburst-shape-2" width="17.931823695793277" opacity="0.8589846093871608" transform="matrix(0.9354100440325523,0.35356477415463555,-0.35356477415463555,0.9354100440325523,261.6058795347221,-319.40234234108783)" fill="#ffc069"></use><use xlink:href="#bbburst-shape-6" width="14.032297964046872" opacity="0.8928202144053241" transform="matrix(0.9408205795087449,-0.3389050562810026,0.3389050562810026,0.9408205795087449,-36.57771241772899,-355.530878801536)" fill="#ff5c58"></use><use xlink:href="#bbburst-shape-5" width="49.093166681925446" opacity="0.35516349028958627" transform="matrix(0.9203256685771156,0.39115299277659266,-0.39115299277659266,0.9203256685771156,662.967353861276,-9.125612898940858)" fill="#3db2ff" filter="url(#bbburst-blur-2)"></use><use xlink:href="#bbburst-shape-2" width="52.49633532725056" opacity="0.14389641771351747" transform="matrix(0.9681583712600602,0.2503385071439618,-0.2503385071439618,0.9681583712600602,505.29856537248736,346.1321071886416)" fill="#ffc069" filter="url(#bbburst-blur-3)"></use><use xlink:href="#bbburst-shape-6" width="11.99429103112192" opacity="0.9550848055931721" transform="matrix(0.8498969924785117,0.526948861063368,-0.526948861063368,0.8498969924785117,247.40490468963148,-326.4870641297189)" fill="#ff5c58"></use><use xlink:href="#bbburst-shape-6" width="20.699873399822497" opacity="0.747786198924823" transform="matrix(0.9649374208100956,0.2624800448040963,-0.2624800448040963,0.9649374208100956,345.9806122890368,-363.73140951913905)" fill="#ffc069"></use><use xlink:href="#bbburst-shape-6" width="20.37502987851022" opacity="0.8015626416540129" transform="matrix(0.9600642285103175,0.27977969392879265,-0.27977969392879265,0.9600642285103175,288.01791195470446,-317.4243501880218)" fill="#ffc069"></use><use xlink:href="#bbburst-shape-2" width="10.999847470953895" opacity="0.9810769535674757" transform="matrix(0.986663781621451,-0.16277156396759773,0.16277156396759773,0.986663781621451,-57.511049340048835,-380.03611981214533)" fill="#ffc069"></use><use xlink:href="#bbburst-shape-6" width="26.79771715753239" opacity="0.5534691825168778" transform="matrix(0.9777266008722414,0.20988257180340816,-0.20988257180340816,0.9777266008722414,514.5496135061028,-343.6762346132608)" fill="#3db2ff" filter="url(#bbburst-blur-1)"></use><use xlink:href="#bbburst-shape-6" width="26.170799690177" opacity="0.7468294581308463" transform="matrix(0.8418095053883768,-0.5397747276760707,0.5397747276760707,0.8418095053883768,-9.341003289367904,-200.22905843491878)" fill="#ff5c58"></use><use xlink:href="#bbburst-shape-6" width="12.381583798746531" opacity="0.9266022965635983" transform="matrix(0.845665935832032,0.5337125864857728,-0.5337125864857728,0.845665935832032,278.1416702616842,-319.1577626656866)" fill="#3db2ff"></use><use xlink:href="#bbburst-shape-5" width="48.6231530980489" opacity="0.2527730969940447" transform="matrix(0.903768234360527,-0.4280221706417269,0.4280221706417269,0.903768234360527,549.6611159553972,-270.2695670598822)" fill="#3db2ff" filter="url(#bbburst-blur-2)"></use><use xlink:href="#bbburst-shape-6" width="45.39675897674934" opacity="0.21822248857108018" transform="matrix(0.9954271379443107,-0.09552388729526311,0.09552388729526311,0.9954271379443107,680.6154027070584,-148.0641769349126)" fill="#ffc069" filter="url(#bbburst-blur-3)"></use><use xlink:href="#bbburst-shape-2" width="14.04934091374814" opacity="0.8855038939028268" transform="matrix(0.7102466479990333,-0.7039529096510202,0.7039529096510202,0.7102466479990333,-220.51930706132777,-185.6217620615833)" fill="#ff5c58"></use><use xlink:href="#bbburst-shape-6" width="44.25430962017131" opacity="0.46478430443236607" transform="matrix(0.7862573124634332,0.6178992139481804,-0.6178992139481804,0.7862573124634332,396.1437163408419,180.52234526785037)" fill="#ff5c58" filter="url(#bbburst-blur-1)"></use><use xlink:href="#bbburst-shape-6" width="45.06850375270132" opacity="0.39181784816268994" transform="matrix(0.7701754203321033,0.6378321267514424,-0.6378321267514424,0.7701754203321033,808.380116533617,-111.97232245526402)" fill="#ffc069" filter="url(#bbburst-blur-2)"></use><use xlink:href="#bbburst-shape-6" width="35.16463801123951" opacity="0.5735192141636478" transform="matrix(0.9280583034517855,0.3724349411564301,-0.3724349411564301,0.9280583034517855,301.44710930434616,13.886230186680166)" fill="#ffc069" filter="url(#bbburst-blur-1)"></use><use xlink:href="#bbburst-shape-2" width="21.131427180454022" opacity="0.7380654940466886" transform="matrix(0.7619913330384922,-0.6475872206693255,0.6475872206693255,0.7619913330384922,-18.468400029994655,-215.46911944770687)" fill="#ffc069"></use><use xlink:href="#bbburst-shape-5" width="19.54235650316519" opacity="0.7746478416920121" transform="matrix(0.8099776378679738,-0.5864607626719944,0.5864607626719944,0.8099776378679738,-154.0208711445057,-111.0041303960935)" fill="#ff5c58"></use><use xlink:href="#bbburst-shape-5" width="36.3032820980139" opacity="0.5970730622769311" transform="matrix(0.951194459774445,-0.3085921251334871,0.3085921251334871,0.951194459774445,164.60957694896112,-111.94174303652596)" fill="#ff5c58" filter="url(#bbburst-blur-1)"></use><use xlink:href="#bbburst-shape-2" width="20.390615236737744" opacity="0.7522784338273516" transform="matrix(0.7357266218994726,-0.6772786264370008,0.6772786264370008,0.7357266218994726,-252.39746321787345,-41.02552037748211)" fill="#ffc069"></use><use xlink:href="#bbburst-shape-2" width="14.749631670619532" opacity="0.7948122773149994" transform="matrix(0.7429670707853662,-0.6693279702273115,0.6693279702273115,0.7429670707853662,-244.62229252318588,-89.05802059544666)" fill="#ff5c58"></use><use xlink:href="#bbburst-shape-2" width="50.24642516575766" opacity="0.3205794862173206" transform="matrix(0.7944519370103418,-0.6073270286925454,0.6073270286925454,0.7944519370103418,28.732187654609106,311.15663174373896)" fill="#ffc069" filter="url(#bbburst-blur-2)"></use><use xlink:href="#bbburst-shape-5" width="12.190917347120184" opacity="0.9548489609164342" transform="matrix(0.9881650193616442,0.15339457131854875,-0.15339457131854875,0.9881650193616442,73.96203323688373,-355.0715675254346)" fill="#ffc069"></use><use xlink:href="#bbburst-shape-6" width="17.233602495911562" opacity="0.8548382551964979" transform="matrix(0.9422807518598114,0.334823811391168,-0.334823811391168,0.9422807518598114,189.4338880422658,-249.32142344595093)" fill="#ffc069"></use><use xlink:href="#bbburst-shape-6" width="17.318093711349373" opacity="0.8148952991492513" transform="matrix(0.9997200086214638,-0.023662298322445423,0.023662298322445423,0.9997200086214638,135.12321036672833,-295.8571254694802)" fill="#ffc069"></use><use xlink:href="#bbburst-shape-2" width="19.490194506032203" opacity="0.8484710383316211" transform="matrix(0.9834018165275084,-0.18144108479172186,0.18144108479172186,0.9834018165275084,24.784703959883814,-284.23166258109603)" fill="#ffc069"></use><use xlink:href="#bbburst-shape-6" width="55.70668378110384" opacity="0.2333673073886422" transform="matrix(0.8109407480312758,-0.5851282792537675,0.5851282792537675,0.8109407480312758,-35.551295408587805,425.98344206611284)" fill="#ffc069" filter="url(#bbburst-blur-3)"></use><use xlink:href="#bbburst-shape-6" width="23.90188744660117" opacity="0.6981135848989621" transform="matrix(0.7969932402991434,-0.6039882241546368,0.6039882241546368,0.7969932402991434,-221.75385904281916,-11.124137072318092)" fill="#3db2ff"></use><use xlink:href="#bbburst-shape-6" width="26.0059825622485" opacity="0.6327365897278587" transform="matrix(0.8094299060374627,-0.5872165079527178,0.5872165079527178,0.8094299060374627,120.2149545180664,-281.4988724370835)" fill="#ffc069" filter="url(#bbburst-blur-1)"></use><use xlink:href="#bbburst-shape-6" width="80.20068258217398" opacity="0.016761241709840502" transform="matrix(0.9612484344926594,-0.27568359977592316,0.27568359977592316,0.9612484344926594,538.3460644943513,329.80739542908907)" fill="#3db2ff" filter="url(#bbburst-blur-3)"></use><use xlink:href="#bbburst-shape-5" width="60.41066496973697" opacity="0.26444078081654177" transform="matrix(0.9747196453314618,0.22343145034866774,-0.22343145034866774,0.9747196453314618,716.35227818278,-64.73568805697676)" fill="#3db2ff" filter="url(#bbburst-blur-2)"></use><use xlink:href="#bbburst-shape-6" width="16.070610555611523" opacity="0.7975766874237741" transform="matrix(0.934859911413567,0.35501682499822146,-0.35501682499822146,0.934859911413567,335.3972955686596,-352.03002249660915)" fill="#ffc069"></use><use xlink:href="#bbburst-shape-6" width="17.799045852000727" opacity="0.922843317255978" transform="matrix(0.9584080518598376,0.28540148235464896,-0.28540148235464896,0.9584080518598376,155.11518694534894,-326.7042771351985)" fill="#ffc069"></use><use xlink:href="#bbburst-shape-6" width="45.00089780626403" opacity="0.20660377796871565" transform="matrix(0.7734218092830324,0.6338917138797135,-0.6338917138797135,0.7734218092830324,727.6625855197353,299.182516416375)" fill="#3db2ff" filter="url(#bbburst-blur-3)"></use><use xlink:href="#bbburst-shape-6" width="44.87099334664015" opacity="0.49391583547954276" transform="matrix(0.9298104283276628,-0.36803881231892943,0.36803881231892943,0.9298104283276628,-121.27490323591496,140.24894468499826)" fill="#ffc069" filter="url(#bbburst-blur-1)"></use><use xlink:href="#bbburst-shape-5" width="29.5364370077889" opacity="0.6684742125971653" transform="matrix(0.8924315535395224,0.45118280358080415,-0.45118280358080415,0.8924315535395224,477.3272461130458,-246.21167349190722)" fill="#ffc069"></use><use xlink:href="#bbburst-shape-6" width="55.94256260507458" opacity="0.118455824539619" transform="matrix(0.9593946863606253,0.2820670767441626,-0.2820670767441626,0.9593946863606253,820.9490924066455,95.13519838987247)" fill="#ff5c58" filter="url(#bbburst-blur-3)"></use><use xlink:href="#bbburst-shape-6" width="19.466443616636383" opacity="0.846418375756266" transform="matrix(0.7457670047522515,-0.6662068557309022,0.6662068557309022,0.7457670047522515,-121.66432839096493,-270.37682481345706)" fill="#ff5c58"></use></svg>