<svg xmlns="http://www.w3.org/2000/svg" version="1.1" xmlns:xlink="http://www.w3.org/1999/xlink" xmlns:svgjs="http://svgjs.dev/svgjs" viewBox="0 0 800 800"><defs><filter id="bbburst-blur-1" x="-100%" y="-100%" width="400%" height="400%"><feGaussianBlur in="SourceGraphic" stdDeviation="1"></feGaussianBlur></filter><filter id="bbburst-blur-2" x="-100%" y="-100%" width="400%" height="400%"><feGaussianBlur in="SourceGraphic" stdDeviation="2"></feGaussianBlur></filter><filter id="bbburst-blur-3" x="-100%" y="-100%" width="400%" height="400%"><feGaussianBlur in="SourceGraphic" stdDeviation="4"></feGaussianBlur></filter><filter id="bbburst-blur-4" x="-100%" y="-100%" width="400%" height="400%"><feGaussianBlur in="SourceGraphic" stdDeviation="12"></feGaussianBlur></filter><symbol id="bbburst-shape-2" viewBox="0 0 126 115"><path d="m63 0 62.77 43.877-23.976 70.996H24.206L.23 43.877 63 0Z"></path></symbol><symbol id="bbburst-shape-5" viewBox="0 0 145 145"><circle cx="72.5" cy="72.5" r="72.5"></circle></symbol><symbol id="bbburst-shape-6" viewBox="0 0 133 116"><path d="M59.7487 10.2513c-13.6683-13.66839-35.8291-13.66839-49.4974 0-13.66839 13.6683-13.66839 35.8291 0 49.4974l49.4974-49.4974ZM66.5 66.5 41.7513 91.2487 66.5 115.997l24.7487-24.7483L66.5 66.5Zm56.249-6.7513c13.668-13.6683 13.668-35.8291 0-49.4974-13.669-13.66839-35.8294-13.66839-49.4977 0l49.4977 49.4974Zm-112.4977 0 31.5 31.5 49.4974-49.4974-31.5-31.5-49.4974 49.4974Zm80.9974 31.5 31.5003-31.5-49.4977-49.4974-31.5 31.5 49.4974 49.4974Z"></path></symbol><symbol id="bbburst-shape-8" viewBox="0 0 87 168"><path d="m12 12 31.2546 18.0749c16.4102 9.4902 20.014 31.6325 7.4603 45.8369L36.3296 92.1884c-12.5684 14.2206-8.9394 36.3916 7.5068 45.8636L75 156" stroke-width="14" stroke-linecap="round" stroke-linejoin="round"></path></symbol><symbol id="bbburst-shape-14" viewBox="0 0 185 109"><path d="M168 16.5C168 58.1975 134.197 92 92.5 92 50.8025 92 17 58.1975 17 16.5" stroke-width="33" stroke-linecap="round"></path></symbol></defs><use xlink:href="#bbburst-shape-2" width="41.707100907777814" opacity="0.5792856370087764" transform="matrix(0.7151500298074414,0.6989709828500864,-0.6989709828500864,0.7151500298074414,845.6424005448719,58.58887002300719)" fill="#7027a0" filter="url(#bbburst-blur-1)"></use><use xlink:href="#bbburst-shape-6" width="16.267260351530364" opacity="0.8129743782279585" transform="matrix(0.9251545410115742,0.37959066801709357,-0.37959066801709357,0.9251545410115742,909.7888257521948,-189.33729190656845)" fill="#3db2ff"></use><use xlink:href="#bbburst-shape-6" width="60.694054993665546" opacity="0.0007194475229024277" transform="matrix(0.9999836896489334,-0.005711430302965992,0.005711430302965992,0.9999836896489334,41.98350182008441,287.4778716380524)" fill="#fee440" filter="url(#bbburst-blur-3)"></use><use xlink:href="#bbburst-shape-2" width="17.189630598547502" opacity="0.778351538036929" transform="matrix(0.9448065065381904,0.3276288528245039,-0.3276288528245039,0.9448065065381904,814.3809582217684,-187.4804252859103)" fill="#7027a0"></use><use xlink:href="#bbburst-shape-6" width="23.215293383114016" opacity="0.6955331037889869" transform="matrix(0.8340397454092147,0.55170436202529,-0.55170436202529,0.8340397454092147,708.5792731521924,-304.78366564742527)" fill="#7027a0"></use><use xlink:href="#bbburst-shape-2" width="34.94200170666219" opacity="0.5513033117455705" transform="matrix(0.9450142605362004,0.32702912314229493,-0.32702912314229493,0.9450142605362004,469.4992309196418,-324.66911556710284)" fill="#3db2ff" filter="url(#bbburst-blur-1)"></use><use xlink:href="#bbburst-shape-14" width="46.441323786055335" opacity="0.4292651165853433" transform="matrix(0.7097156796500821,0.7044882213769241,-0.7044882213769241,0.7097156796500821,745.905359789824,172.81532699947002)" fill="none" stroke="#7027a0" filter="url(#bbburst-blur-2)"></use><use xlink:href="#bbburst-shape-14" width="37.55683364722924" opacity="0.6058326885635386" transform="matrix(0.8368399245848521,-0.5474476601656263,0.5474476601656263,0.8368399245848521,240.40398863055248,-101.28052688402775)" fill="none" stroke="#7027a0" filter="url(#bbburst-blur-1)"></use><use xlink:href="#bbburst-shape-8" width="44.67922364790975" opacity="0.4607206760336161" transform="matrix(0.9750133304348698,-0.22214636047953473,0.22214636047953473,0.9750133304348698,154.9693523396075,-312.59415873691506)" fill="none" stroke="#7027a0" filter="url(#bbburst-blur-1)"></use><use xlink:href="#bbburst-shape-8" width="46.07128028147701" opacity="0.2528931513687628" transform="matrix(0.8654655467306088,-0.5009684495278005,0.5009684495278005,0.8654655467306088,506.56405667507073,408.8747756162291)" fill="none" stroke="#3db2ff" filter="url(#bbburst-blur-2)"></use><use xlink:href="#bbburst-shape-6" width="10.884243494415776" opacity="0.9621639726812373" transform="matrix(0.7106814101175478,0.7035139894226226,-0.7035139894226226,0.7106814101175478,1064.1224206532347,-252.7232533218792)" fill="#7027a0"></use><use xlink:href="#bbburst-shape-2" width="37.3437217409838" opacity="0.5094983000467094" transform="matrix(0.7973927468340752,-0.603460692420317,0.603460692420317,0.7973927468340752,362.8148178443527,148.24078650760885)" fill="#7027a0" filter="url(#bbburst-blur-1)"></use><use xlink:href="#bbburst-shape-5" width="15.87024235643764" opacity="0.9076713743506004" transform="matrix(0.9972013293058772,0.07476301780018871,-0.07476301780018871,0.9972013293058772,768.2172931484823,-324.4216406884071)" fill="#3db2ff"></use><use xlink:href="#bbburst-shape-14" width="12.409461469935184" opacity="0.902555398340629" transform="matrix(0.9449696739931119,0.327157936222479,-0.327157936222479,0.9449696739931119,908.5118978548087,-283.9614515148902)" fill="none" stroke="#fee440"></use><use xlink:href="#bbburst-shape-14" width="11.378550400417325" opacity="0.9626086977591954" transform="matrix(0.9959705680175976,-0.08968069827283831,0.08968069827283831,0.9959705680175976,723.5929133716029,-384.3643931121509)" fill="none" stroke="#7027a0"></use><use xlink:href="#bbburst-shape-2" width="18.50773089584205" opacity="0.8542431890887386" transform="matrix(0.9999633773188,0.00855827209074357,-0.00855827209074357,0.9999633773188,657.5124570697774,-349.3615850788107)" fill="#3db2ff"></use><use xlink:href="#bbburst-shape-2" width="24.532836347732" opacity="0.6676770504329732" transform="matrix(0.9485873152527914,-0.31651556887695326,0.31651556887695326,0.9485873152527914,544.1123066748481,-64.73994193813013)" fill="#7027a0"></use><use xlink:href="#bbburst-shape-14" width="50.89767079006849" opacity="0.48574947828968795" transform="matrix(0.8973453108825472,-0.4413291209937372,0.4413291209937372,0.8973453108825472,177.0689179338574,-56.05936819715566)" fill="none" stroke="#fee440" filter="url(#bbburst-blur-1)"></use><use xlink:href="#bbburst-shape-2" width="50.12591728352483" opacity="0.22658573480812394" transform="matrix(0.7693323580383188,-0.638848748042289,0.638848748042289,0.7693323580383188,294.4175686126776,446.479105672905)" fill="#fee440" filter="url(#bbburst-blur-3)"></use><use xlink:href="#bbburst-shape-6" width="54.76841991002981" opacity="0.40775149194216576" transform="matrix(0.8452664666923037,-0.5343450198939901,0.5343450198939901,0.8452664666923037,360.5282149482334,233.0485525166403)" fill="#fee440" filter="url(#bbburst-blur-2)"></use><use xlink:href="#bbburst-shape-2" width="39.35022546617671" opacity="0.5957142394504655" transform="matrix(0.999743618364694,-0.02264282533317999,0.02264282533317999,0.999743618364694,649.0954394471211,-14.049761400790771)" fill="#7027a0" filter="url(#bbburst-blur-1)"></use><use xlink:href="#bbburst-shape-14" width="16.2746215591073" opacity="0.8779709969622049" transform="matrix(0.891954534822228,-0.45212510194642236,0.45212510194642236,0.891954534822228,561.6941723861889,-241.86139142754075)" fill="none" stroke="#3db2ff"></use><use xlink:href="#bbburst-shape-8" width="24.049942218057858" opacity="0.6889375735484917" transform="matrix(0.9100708602082607,0.4144526865636131,-0.4144526865636131,0.9100708602082607,788.5219228320625,-106.14529289934427)" fill="none" stroke="#3db2ff"></use><use xlink:href="#bbburst-shape-2" width="16.481435154652985" opacity="0.8822516970117851" transform="matrix(0.8626615024703569,0.5057817040538204,-0.5057817040538204,0.8626615024703569,894.9090310531536,-287.5287568343597)" fill="#3db2ff"></use><use xlink:href="#bbburst-shape-8" width="73.67241008235175" opacity="0.08752338555957762" transform="matrix(0.8535450393510735,0.5210190647175729,-0.5210190647175729,0.8535450393510735,406.81011972595434,351.8049061183686)" fill="none" stroke="#7027a0" filter="url(#bbburst-blur-3)"></use><use xlink:href="#bbburst-shape-14" width="54.47712895634423" opacity="0.21498002013035877" transform="matrix(0.8230056369018525,0.5680332046876979,-0.5680332046876979,0.8230056369018525,273.3756642368121,-59.40862793086063)" fill="none" stroke="#7027a0" filter="url(#bbburst-blur-3)"></use><use xlink:href="#bbburst-shape-5" width="23.07333187463794" opacity="0.7467960488722605" transform="matrix(0.9893271494819028,-0.14571132865365236,0.14571132865365236,0.9893271494819028,479.41615357056344,-359.86552371535913)" fill="#7027a0"></use><use xlink:href="#bbburst-shape-14" width="30.768480687248978" opacity="0.6359536805303594" transform="matrix(0.9776188028567768,-0.21038411608503763,0.21038411608503763,0.9776188028567768,662.4698615658182,-25.749043182523394)" fill="none" stroke="#7027a0" filter="url(#bbburst-blur-1)"></use><use xlink:href="#bbburst-shape-14" width="67.31454829087863" opacity="0.2758704242969765" transform="matrix(0.9085808090813071,0.4177091253122887,-0.4177091253122887,0.9085808090813071,498.1204927556196,198.974479208491)" fill="none" stroke="#7027a0" filter="url(#bbburst-blur-2)"></use><use xlink:href="#bbburst-shape-14" width="18.93560273851926" opacity="0.810322388492319" transform="matrix(0.9028998082175685,0.42985106295166686,-0.42985106295166686,0.9028998082175685,837.7487198225247,-223.10045994167888)" fill="none" stroke="#7027a0"></use><use xlink:href="#bbburst-shape-5" width="11.594755800296628" opacity="0.9402655758601255" transform="matrix(0.9090387493254416,-0.4167115935810245,0.4167115935810245,0.9090387493254416,585.9618070022993,-318.80652160191073)" fill="#7027a0"></use><use xlink:href="#bbburst-shape-6" width="44.024610126315764" opacity="0.24780696061390328" transform="matrix(0.9993098703074005,-0.03714543183497065,0.03714543183497065,0.9993098703074005,17.498397441045057,-299.8809808430489)" fill="#fee440" filter="url(#bbburst-blur-3)"></use><use xlink:href="#bbburst-shape-14" width="26.40964122718008" opacity="0.7782951967975574" transform="matrix(0.764260762836195,0.6449073471352589,-0.6449073471352589,0.764260762836195,867.5040661392729,-185.23909719538477)" fill="none" stroke="#7027a0"></use><use xlink:href="#bbburst-shape-2" width="59.82556279817256" opacity="0.3536031073277023" transform="matrix(0.8835287409792015,0.4683769463409862,-0.4683769463409862,0.8835287409792015,346.74117833686955,-165.83080611443523)" fill="#3db2ff" filter="url(#bbburst-blur-2)"></use><use xlink:href="#bbburst-shape-14" width="54.759086845780736" opacity="0.35715359612898856" transform="matrix(0.9990962299805428,-0.04250556714909517,0.04250556714909517,0.9990962299805428,115.69647146845611,-337.44221798898656)" fill="none" stroke="#7027a0" filter="url(#bbburst-blur-2)"></use><use xlink:href="#bbburst-shape-2" width="21.47724819388386" opacity="0.7060957618721315" transform="matrix(0.9590157394068446,0.2833528040622557,-0.2833528040622557,0.9590157394068446,866.3335213993189,-95.03563847146108)" fill="#7027a0"></use><use xlink:href="#bbburst-shape-14" width="9.080796198637461" opacity="0.9840732109023397" transform="matrix(0.9362325602746441,0.35138097996559936,-0.35138097996559936,0.9362325602746441,924.942271493358,-364.9088021362582)" fill="none" stroke="#3db2ff"></use><use xlink:href="#bbburst-shape-6" width="45.06708249114861" opacity="0.5902344935264138" transform="matrix(0.9697087185744027,-0.24426420351903763,0.24426420351903763,0.9697087185744027,298.5526440450065,-233.82863809230963)" fill="#7027a0" filter="url(#bbburst-blur-1)"></use><use xlink:href="#bbburst-shape-6" width="16.99355627093245" opacity="0.8367756386327125" transform="matrix(0.9521070675939631,-0.30576483093649687,0.30576483093649687,0.9521070675939631,536.0386499792099,-284.4234437941324)" fill="#7027a0"></use><use xlink:href="#bbburst-shape-14" width="30.71611708271807" opacity="0.7536320737304237" transform="matrix(0.9334712383377334,0.35865226500918473,-0.35865226500918473,0.9334712383377334,700.9563162293164,-285.88923787897767)" fill="none" stroke="#7027a0"></use><use xlink:href="#bbburst-shape-6" width="12.97660595332902" opacity="0.9346329881705131" transform="matrix(0.9983422040493163,-0.05755730721596891,0.05755730721596891,0.9983422040493163,753.6269576407975,-335.81139680519703)" fill="#fee440"></use><use xlink:href="#bbburst-shape-5" width="30.666128797843687" opacity="0.7017495830146558" transform="matrix(0.8153002552358244,-0.579038421706539,0.579038421706539,0.8153002552358244,310.5087672114296,-147.69960225131564)" fill="#fee440"></use><use xlink:href="#bbburst-shape-6" width="16.5672057208523" opacity="0.8285737792280746" transform="matrix(0.9998242958784197,0.018745062582510994,-0.018745062582510994,0.9998242958784197,629.1918896728995,-378.20345450093845)" fill="#3db2ff"></use><use xlink:href="#bbburst-shape-14" width="11.568717773445307" opacity="0.8892305030354676" transform="matrix(0.8406971946309599,-0.5415055188450381,0.5415055188450381,0.8406971946309599,469.7879540672096,-312.1063044619362)" fill="none" stroke="#7027a0"></use><use xlink:href="#bbburst-shape-6" width="17.6562336390906" opacity="0.8643641582822186" transform="matrix(0.7666760800726973,-0.642034102088326,0.642034102088326,0.7666760800726973,447.01076408279323,-199.00529181853148)" fill="#fee440"></use><use xlink:href="#bbburst-shape-14" width="9.526268921875197" opacity="0.9143363920022686" transform="matrix(0.9992117593697704,-0.039697102377480815,0.039697102377480815,0.9992117593697704,695.3237504947176,-382.87619892839143)" fill="none" stroke="#fee440"></use><use xlink:href="#bbburst-shape-2" width="29.436944511322636" opacity="0.5489877659553626" transform="matrix(0.9980771237986568,-0.06198431212654358,0.06198431212654358,0.9980771237986568,709.0740372284557,49.76508848769828)" fill="#3db2ff" filter="url(#bbburst-blur-1)"></use><use xlink:href="#bbburst-shape-2" width="26.433921873861998" opacity="0.6310609762092677" transform="matrix(0.9660608584357491,0.25831457140158326,-0.25831457140158326,0.9660608584357491,524.4989187677277,-343.7855606464355)" fill="#7027a0" filter="url(#bbburst-blur-1)"></use><use xlink:href="#bbburst-shape-6" width="30.638250880539683" opacity="0.7388991424214684" transform="matrix(0.9999942902749474,0.0033792628640398957,-0.0033792628640398957,0.9999942902749474,609.7716077214834,-207.42073963000206)" fill="#3db2ff"></use><use xlink:href="#bbburst-shape-6" width="39.70774473865862" opacity="0.6435226035579265" transform="matrix(0.9147186754496182,0.4040912579896974,-0.4040912579896974,0.9147186754496182,700.0206482089342,-113.51432830959612)" fill="#3db2ff" filter="url(#bbburst-blur-1)"></use><use xlink:href="#bbburst-shape-14" width="71.80469077633396" opacity="0.3804868615667547" transform="matrix(0.8863592579764541,-0.46299812720941935,0.46299812720941935,0.8863592579764541,130.44688784294635,85.21480027653632)" fill="none" stroke="#7027a0" filter="url(#bbburst-blur-2)"></use><use xlink:href="#bbburst-shape-2" width="59.898438964804825" opacity="0.1338773477251025" transform="matrix(0.7785417840347753,0.6275927744261794,-0.6275927744261794,0.7785417840347753,300.2860968817457,139.95484273807494)" fill="#7027a0" filter="url(#bbburst-blur-3)"></use><use xlink:href="#bbburst-shape-14" width="54.372171662618975" opacity="0.3240563211572963" transform="matrix(0.8544690000419417,0.5195023849486392,-0.5195023849486392,0.8544690000419417,405.8072919171898,-6.596983022264567)" fill="none" stroke="#7027a0" filter="url(#bbburst-blur-2)"></use><use xlink:href="#bbburst-shape-14" width="12.39955599623978" opacity="0.8617962001048767" transform="matrix(0.9496669293681669,-0.31326142958308334,0.31326142958308334,0.9496669293681669,531.4001901470342,-363.1431049170274)" fill="none" stroke="#fee440"></use><use xlink:href="#bbburst-shape-5" width="22.656741952289245" opacity="0.740972744461272" transform="matrix(0.9897379080134173,0.14289462355604665,-0.14289462355604665,0.9897379080134173,756.6964911036713,-154.34794974611611)" fill="#fee440"></use><use xlink:href="#bbburst-shape-6" width="19.558013377772426" opacity="0.7907822574994217" transform="matrix(0.8179610494039647,0.5752736059111045,-0.5752736059111045,0.8179610494039647,814.7623361632138,-304.9026080236132)" fill="#7027a0"></use><use xlink:href="#bbburst-shape-5" width="54.26163576334598" opacity="0.47619351250459496" transform="matrix(0.9955735088884163,0.09398610748193821,-0.09398610748193821,0.9955735088884163,325.4989833007255,-203.12800914873398)" fill="#7027a0" filter="url(#bbburst-blur-1)"></use><use xlink:href="#bbburst-shape-14" width="10.617613683598382" opacity="0.9388801239228618" transform="matrix(0.9986933817121606,0.05110312440867702,-0.05110312440867702,0.9986933817121606,755.9367551593486,-384.5430344007855)" fill="none" stroke="#3db2ff"></use><use xlink:href="#bbburst-shape-2" width="40.55077308997181" opacity="0.4571587697693239" transform="matrix(0.9964789269643914,0.08384359317142281,-0.08384359317142281,0.9964789269643914,749.83147326556,138.8432113381587)" fill="#7027a0" filter="url(#bbburst-blur-1)"></use><use xlink:href="#bbburst-shape-6" width="17.764979569860113" opacity="0.8587322476412429" transform="matrix(0.9670442266269523,-0.2546084518382682,0.2546084518382682,0.9670442266269523,669.7876233146497,-244.6797184478928)" fill="#7027a0"></use><use xlink:href="#bbburst-shape-2" width="56.82066800743153" opacity="0.16349961613882447" transform="matrix(0.9967035065405,-0.08113026592999306,0.08113026592999306,0.9967035065405,331.7685415175907,334.2033447716358)" fill="#7027a0" filter="url(#bbburst-blur-3)"></use><use xlink:href="#bbburst-shape-8" width="50.021707437520924" opacity="0.5285708210026532" transform="matrix(0.8292122491427195,-0.558933847491519,0.558933847491519,0.8292122491427195,234.77343814685102,27.63471955329635)" fill="none" stroke="#fee440" filter="url(#bbburst-blur-1)"></use><use xlink:href="#bbburst-shape-6" width="49.30233765908605" opacity="0.3549769135421633" transform="matrix(0.960191649871659,0.27934207616601836,-0.27934207616601836,0.960191649871659,795.6381430599276,247.4042200117168)" fill="#7027a0" filter="url(#bbburst-blur-2)"></use><use xlink:href="#bbburst-shape-6" width="56.720315734396365" opacity="0.3068429997519003" transform="matrix(0.9999625834390304,0.008650533043703033,-0.008650533043703033,0.9999625834390304,479.9757076167444,226.96053810104087)" fill="#7027a0" filter="url(#bbburst-blur-2)"></use><use xlink:href="#bbburst-shape-2" width="18.169564508851906" opacity="0.833386959765466" transform="matrix(0.95426839730112,0.2989512099195315,-0.2989512099195315,0.95426839730112,838.4012534864182,-234.4058289747229)" fill="#3db2ff"></use><use xlink:href="#bbburst-shape-6" width="25.79478652215163" opacity="0.7672462402749415" transform="matrix(0.9739015998550917,-0.22697064523786514,0.22697064523786514,0.9739015998550917,669.4068470131135,-155.4792663004883)" fill="#7027a0"></use><use xlink:href="#bbburst-shape-14" width="10.799460526973686" opacity="0.9133547617377552" transform="matrix(0.9463824409274043,-0.32304841046550287,0.32304841046550287,0.9463824409274043,593.3236519357681,-329.1223761000276)" fill="none" stroke="#7027a0"></use><use xlink:href="#bbburst-shape-14" width="27.65789197137236" opacity="0.6817286213947686" transform="matrix(0.9655820661673226,-0.26009858418692766,0.26009858418692766,0.9655820661673226,385.2579533812463,-269.1358205202411)" fill="none" stroke="#fee440"></use><use xlink:href="#bbburst-shape-5" width="79.96975314827316" opacity="0.20806019379949892" transform="matrix(0.9490086994268658,-0.31524988249344144,0.31524988249344144,0.9490086994268658,47.16006237990646,162.6150812688607)" fill="#7027a0" filter="url(#bbburst-blur-3)"></use><use xlink:href="#bbburst-shape-6" width="23.94266665476915" opacity="0.8095548575342761" transform="matrix(0.989939063204819,-0.14149435020934778,0.14149435020934778,0.989939063204819,555.011929866112,-322.845036124486)" fill="#fee440"></use></svg>